# xmcd CD database file
#
# Track frame offsets:
#	150
#	16933
#	33330
#	47075
#	64393
#	82340
#	96083
#	110825
#	122235
#	133353
#	146430
#	163143
#	175835
#	190028
#	208490
#	222693
#	237480
#	250888
#	270140
#	284988
#	300500
#	317280
#
# Disc length: 4424 seconds
#
# Revision: 0
# Processed by: cddbd v1.5.2PL0 Copyright (c) Steve Scherf et al.
# Submitted via: CDex 1.70beta3
#
DISCID=5a114616
DTITLE=The Glenn Miller Orchestra - The Infinity Sound of Glenn Miller
DYEAR=2004
DGENRE=Jazz
TTITLE0=Moonlight Serenade
TTITLE1=Anvil Chorus
TTITLE2=A String of Pearls
TTITLE3=Tuxedo Junction
TTITLE4=Over the Rainbow
TTITLE5=Pennsylvania 6-5000
TTITLE6=Perfidia
TTITLE7=Don't Sit Under the Apple Tree
TTITLE8=Caribbean Clipper
TTITLE9=Along the Santafe Trail
TTITLE10=Chattanooga Choo Choo
TTITLE11=I've Got a Gal in Kalamazoo
TTITLE12=Everybody Loves My Baby
TTITLE13=Body and Soul
TTITLE14=The American Patrol
TTITLE15=Little Brown Jug
TTITLE16=Too Little Time
TTITLE17=St. Louis Blues March
TTITLE18=Danny Boy
TTITLE19=In the Mood
TTITLE20=Moonlight Serenade
TTITLE21=Bugle Call Rag
EXTD=YEAR: 2004
EXTT0=
EXTT1=
EXTT2=
EXTT3=
EXTT4=
EXTT5=
EXTT6=
EXTT7=
EXTT8=
EXTT9=
EXTT10=
EXTT11=
EXTT12=
EXTT13=
EXTT14=
EXTT15=
EXTT16=
EXTT17=
EXTT18=
EXTT19=
EXTT20=
EXTT21=
PLAYORDER=
